<svg width="44" height="66" viewBox="0 0 44 66" fill="none" xmlns="http://www.w3.org/2000/svg">
<path d="M10.4807 0.0871582C7.86202 0.0871582 5.35061 1.1274 3.49893 2.97904C1.64726 4.83067 0.606998 7.34203 0.606998 9.96064C0.606998 12.5793 1.64726 15.0906 3.49893 16.9423C5.35061 18.7939 7.86202 19.8341 10.4807 19.8341H33.5193C36.1379 19.8341 38.6493 18.7939 40.501 16.9423C42.3527 15.0906 43.393 12.5793 43.393 9.96064C43.393 7.34203 42.3527 4.83067 40.501 2.97904C38.6493 1.1274 36.1379 0.0871582 33.5193 0.0871582H10.4807ZM33.5193 23.1253C30.9006 23.1253 28.3892 24.1655 26.5375 26.0172C24.6859 27.8688 23.6456 30.3802 23.6456 32.9988C23.6456 35.6174 24.6859 38.1287 26.5375 39.9804C28.3892 41.832 30.9006 42.8723 33.5193 42.8723C36.1379 42.8723 38.6493 41.832 40.501 39.9804C42.3527 38.1287 43.393 35.6174 43.393 32.9988C43.393 30.3802 42.3527 27.8688 40.501 26.0172C38.6493 24.1655 36.1379 23.1253 33.5193 23.1253ZM0.606998 32.9988C0.606998 30.3802 1.64726 27.8688 3.49893 26.0172C5.35061 24.1655 7.86202 23.1253 10.4807 23.1253H20.3544V42.8723H10.4807C7.86202 42.8723 5.35061 41.832 3.49893 39.9804C1.64726 38.1287 0.606998 35.6174 0.606998 32.9988ZM10.4807 46.1634C8.52785 46.1634 6.61888 46.7425 4.99516 47.8274C3.37144 48.9123 2.1059 50.4543 1.35859 52.2585C0.611273 54.0626 0.415741 56.0479 0.796719 57.9631C1.1777 59.8784 2.11807 61.6377 3.49893 63.0185C4.87979 64.3994 6.63911 65.3397 8.55442 65.7207C10.4697 66.1016 12.455 65.9061 14.2592 65.1588C16.0634 64.4115 17.6054 63.146 18.6903 61.5223C19.7753 59.8986 20.3544 57.9897 20.3544 56.0369V46.1634H10.4807Z" fill="#1A273E"/>
</svg>
