<svg width="71" height="79" viewBox="0 0 71 79" fill="none" xmlns="http://www.w3.org/2000/svg">
<path d="M25.4644 76.442C25.4644 75.2313 25.4207 72.0276 25.3956 67.7758C11.2193 70.8543 8.22828 60.943 8.22828 60.943C5.90989 55.055 2.56842 53.4876 2.56842 53.4876C-2.05897 50.3277 2.91883 50.3903 2.91883 50.3903C8.0343 50.7501 10.725 55.6432 10.725 55.6432C15.271 63.4303 22.6549 61.1808 25.5583 59.8761C26.0214 56.5849 27.3385 54.3385 28.7934 53.0652C17.4768 51.7762 5.57826 47.4057 5.57826 27.8771C5.57826 22.3113 7.565 17.7655 10.8251 14.202C10.2995 12.9131 8.55054 7.73203 11.3257 0.714615C11.3257 0.714615 15.6027 -0.655728 25.3393 5.9362C29.4035 4.80678 33.765 4.24365 38.0983 4.22175C42.4284 4.24365 46.7867 4.80678 50.8572 5.9362C60.5876 -0.655728 64.8583 0.714615 64.8583 0.714615C67.6397 7.73203 65.8908 12.9131 65.3683 14.202C68.6347 17.7655 70.6058 22.3113 70.6058 27.8771C70.6058 47.4557 58.6884 51.7638 47.3374 53.0246C49.1646 54.5982 50.7947 57.708 50.7947 62.4635C50.7947 69.2744 50.7321 74.7714 50.7321 76.442C50.7321 77.5954 51.4125 78.9076 53.1794 78.9847H22.8663C24.7529 78.9776 25.4644 77.6248 25.4644 76.442Z" fill="#1A273E"/>
</svg>
