<svg width="72" height="54" viewBox="0 0 72 54" fill="none" xmlns="http://www.w3.org/2000/svg">
<path fill-rule="evenodd" clip-rule="evenodd" d="M8.71907 38.389L0.469528 43.5754C2.85736 48.8372 7.56134 53.1965 15.6653 53.1965C24.6384 53.1965 30.7888 48.2351 30.7888 37.3351V1.40394H20.6584V37.1863C20.6584 42.4479 18.5597 43.8006 15.231 43.8006C11.7583 43.8006 10.3106 41.3204 8.71907 38.389ZM44.5395 37.4866L36.2909 42.448C39.2573 48.5372 45.336 53.1976 54.7429 53.1976C64.3668 53.1976 71.5305 48.0112 71.5305 38.5389C71.5305 29.7441 66.6821 25.8356 58.071 22.0015L55.5385 20.874C51.1973 18.9194 49.3158 17.6412 49.3158 14.4839C49.3158 11.9284 51.1973 9.97401 54.1642 9.97401C57.0585 9.97401 58.9394 11.2517 60.6761 14.4839L68.5636 9.2221C65.2353 3.13306 60.6043 0.80249 54.164 0.80249C45.1185 0.80249 39.3297 6.81652 39.3297 14.7096C39.3297 23.2794 44.1781 27.3387 51.487 30.5705L54.0189 31.6989C58.6502 33.803 61.3998 35.081 61.3998 38.6893C61.3998 41.6962 58.7231 43.8764 54.5256 43.8764C49.533 43.8764 46.7108 41.1704 44.5395 37.4866Z" fill="#1A273E"/>
</svg>
