<svg width="89" height="70" viewBox="0 0 89 70" fill="none" xmlns="http://www.w3.org/2000/svg">
<path d="M75.8917 40.163C72.8413 40.1814 70.2 40.9606 67.9847 42.1208C67.1667 40.3989 66.3487 38.8942 66.2126 37.7706C66.0592 36.4655 65.8717 35.6678 66.0592 34.1092C66.2465 32.5502 67.0985 30.3388 67.0985 30.1576C67.0813 29.9944 66.9109 29.1969 65.1559 29.1788C63.4008 29.1606 61.884 29.5413 61.7136 30.0307C61.5432 30.5201 61.2024 31.6439 60.9808 32.8039C60.6741 34.5078 57.4704 40.5437 55.647 43.7157C55.0506 42.4832 54.5393 41.3956 54.4369 40.5254C54.2837 39.2205 54.0961 38.4228 54.2837 36.8641C54.4712 35.3051 55.3232 33.0939 55.3232 32.9127C55.3062 32.7496 55.1358 31.952 53.3807 31.9339C51.6253 31.9158 50.1089 32.2964 49.9384 32.7858C49.768 33.2752 49.5806 34.4353 49.2057 35.5591C48.8477 36.6829 44.5874 46.7609 43.4798 49.3891C42.9174 50.7304 42.4234 51.7999 42.0654 52.5249C41.7075 53.2499 42.0483 52.5793 42.0142 52.6518C41.7075 53.2681 41.5371 53.6125 41.5371 53.6125V53.6308C41.2985 54.0839 41.0429 54.5187 40.9234 54.5187C40.8382 54.5187 40.6678 53.3043 40.9575 51.6369C41.588 48.1384 43.1217 42.6827 43.1049 42.4833C43.1049 42.3927 43.3944 41.4319 42.1163 40.9426C40.8723 40.4532 40.4294 41.2689 40.327 41.2689C40.2248 41.2689 40.1396 41.5589 40.1396 41.5589C40.1396 41.5589 41.5199 35.4144 37.4982 35.4144C34.9761 35.4144 31.4998 38.3327 29.7786 40.9972C28.688 41.6316 26.3705 42.9727 23.9166 44.4049C22.9793 44.9486 22.008 45.5287 21.0878 46.0543L20.9005 45.8364C16.0268 40.308 7.01209 36.3929 7.387 28.9612C7.52332 26.2605 8.40945 19.137 24.7008 10.5091C38.0439 3.43999 48.7285 5.37947 50.5858 9.69343C53.2272 15.8562 44.8771 27.3118 31.0059 28.9612C25.7232 29.5957 22.9454 27.4205 22.2469 26.6049C21.5141 25.753 21.4119 25.7167 21.1392 25.8798C20.6962 26.1336 20.9688 26.8949 21.1392 27.348C21.5482 28.49 23.2523 30.5201 26.1493 31.5351C28.6882 32.4233 34.8913 32.9127 42.3893 29.8313C50.7905 26.3692 57.3513 16.7625 55.4256 8.73275C53.4659 0.557979 40.7193 -2.12465 28.6713 2.42494C21.4969 5.14383 13.7262 9.38529 8.1368 14.9499C1.49082 21.5478 0.434284 27.3118 0.877349 29.7044C2.42825 38.2417 13.4877 43.8064 17.9183 47.9209C17.6968 48.0476 17.4923 48.1745 17.3048 48.2834C15.0895 49.4433 6.65423 54.1381 4.54116 59.1044C2.15542 64.7234 4.91606 68.7657 6.75648 69.3095C12.4482 70.9952 18.2762 67.9682 21.4287 62.9835C24.5641 57.9989 24.1894 51.528 22.7409 48.5735L22.6896 48.4647L24.4278 47.3771C25.5527 46.6702 26.6603 46.0177 27.6315 45.4556C27.0863 47.0326 26.6942 48.8995 26.4899 51.6184C26.2513 54.8088 27.4783 58.9413 29.0972 60.5726C29.8129 61.2793 30.6649 61.2977 31.1932 61.2977C33.0677 61.2977 33.9198 59.648 34.857 57.6725C36.0158 55.2617 37.0383 52.4703 37.0383 52.4703C37.0383 52.4703 35.7602 60.0288 39.2536 60.0288C40.5317 60.0288 41.8097 58.2706 42.3891 57.3643V57.3825C42.3891 57.3825 42.4232 57.3281 42.4914 57.2012C42.5629 57.0887 42.6311 56.974 42.6959 56.857V56.8207C43.2071 55.8782 44.3488 53.7212 46.0529 50.1504C48.2511 45.5464 50.3643 39.7824 50.3643 39.7824C50.3643 39.7824 50.5688 41.1962 51.1993 43.5163C51.574 44.8941 52.392 46.3984 53.0225 47.8666C52.5113 48.6278 52.2046 49.063 52.2046 49.063L52.2216 49.0812C51.8128 49.6612 51.3525 50.2777 50.8755 50.8938C49.1374 53.1051 47.0584 55.6248 46.7857 56.3498C46.4619 57.2016 46.5301 57.836 47.1606 58.3437C47.6207 58.7062 48.4387 58.7785 49.3078 58.7062C50.8755 58.5973 51.9662 58.1805 52.5115 57.9266C53.3635 57.6003 54.3348 57.1109 55.2721 56.3859C56.9762 55.0448 58.0157 53.1415 57.9134 50.6039C57.8623 49.2082 57.4363 47.8307 56.908 46.5256C57.0614 46.29 57.2149 46.0541 57.3681 45.8006C60.0606 41.6133 62.1396 37.0095 62.1396 37.0095C62.1396 37.0095 62.3441 38.4233 62.9746 40.7434C63.2982 41.9216 63.9459 43.2087 64.5253 44.4776C62.0033 46.6708 60.4185 49.2084 59.8732 50.876C58.8677 53.9574 59.6516 55.3531 61.1342 55.6794C61.7986 55.8244 62.7531 55.4981 63.4686 55.1718C64.3548 54.8637 65.4283 54.3379 66.4169 53.5586C68.121 52.2173 69.7569 50.3503 69.6717 47.8308C69.6206 46.6708 69.3309 45.5289 68.9389 44.4413C71.0861 43.4988 73.8636 42.955 77.3913 43.4081C84.9745 44.3507 86.4741 49.3897 86.1846 51.4923C85.8949 53.5951 84.3101 54.7549 83.7816 55.1174C83.2534 55.4618 83.0829 55.5889 83.1341 55.8425C83.2022 56.2233 83.4408 56.205 83.9009 56.1327C84.5314 56.0237 87.8885 54.4107 88.0248 50.532C88.2293 45.5466 83.7816 40.1088 75.8917 40.163ZM17.4071 61.1347C14.9021 64.053 11.3746 65.1586 9.87498 64.2161C8.25609 63.2192 8.88643 58.9233 11.971 55.8238C13.8455 53.9387 16.2824 52.1986 17.8842 51.1292C18.2421 50.8936 18.7874 50.5494 19.435 50.1323C19.5372 50.06 19.6054 50.0235 19.6054 50.0235C19.7247 49.951 19.861 49.8604 19.9973 49.7698C21.1391 54.1925 20.0484 58.0714 17.4071 61.1347ZM35.7261 47.8847C34.857 50.1504 33.0166 55.9688 31.9089 55.6426C30.9545 55.3707 30.3753 50.9661 31.7213 46.6159C32.403 44.4224 33.8514 41.8125 34.7035 40.7973C36.084 39.1659 37.5834 38.6222 37.9585 39.2928C38.4015 40.163 36.2714 46.4709 35.7261 47.8847ZM50.8414 55.5701C50.4665 55.7696 50.1257 55.9144 49.9724 55.8059C49.8531 55.7334 50.1256 55.4615 50.1256 55.4615C50.1256 55.4615 52.0171 53.3045 52.7669 52.3076C53.1929 51.7277 53.7042 51.0571 54.2495 50.2956V50.5131C54.2496 53.1231 51.898 54.8631 50.8414 55.5701ZM62.4973 52.7424C62.2246 52.5249 62.2589 51.8542 63.1789 49.7516C63.537 48.9179 64.3548 47.5222 65.7692 46.199C65.9396 46.7427 66.042 47.2682 66.0248 47.7578C66.0079 51.0205 63.8267 52.2349 62.4973 52.7424Z" fill="#1A273E"/>
</svg>
