<svg width="48" height="40" viewBox="0 0 48 40" fill="none" xmlns="http://www.w3.org/2000/svg">
<path d="M45.0375 0.600006C46.4625 0.600006 47.5375 1.85001 46.9625 4.17501L39.9875 37.05C39.5 39.3875 38.0875 39.95 36.1375 38.8625L19.5 26.575C19.4355 26.5287 19.3829 26.4677 19.3466 26.3971C19.3104 26.3264 19.2915 26.2482 19.2915 26.1688C19.2915 26.0893 19.3104 26.0111 19.3466 25.9404C19.3829 25.8698 19.4355 25.8088 19.5 25.7625L38.7125 8.41251C39.5875 7.63751 38.525 7.26251 37.375 7.96251L13.2625 23.175C13.1894 23.2227 13.1063 23.2531 13.0197 23.2639C12.9331 23.2748 12.8451 23.2657 12.7625 23.2375L2.52499 20C0.24999 19.3375 0.249989 17.775 3.03749 16.6625L44 0.862506C44.3248 0.706658 44.6776 0.617405 45.0375 0.600006Z" fill="#1A273E"/>
</svg>
