<svg width="45" height="37" viewBox="0 0 45 37" fill="none" xmlns="http://www.w3.org/2000/svg">
<path d="M41.7843 0.716667C43.0906 0.716667 44.076 1.8625 43.5489 3.99375L37.1552 34.1292C36.7083 36.2719 35.4135 36.7875 33.626 35.7906L18.375 24.5271C18.3158 24.4846 18.2676 24.4287 18.2344 24.364C18.2012 24.2992 18.1838 24.2275 18.1838 24.1547C18.1838 24.0819 18.2012 24.0102 18.2344 23.9454C18.2676 23.8806 18.3158 23.8247 18.375 23.7823L35.9864 7.87813C36.7885 7.16771 35.8146 6.82396 34.7604 7.46563L12.6573 21.4104C12.5902 21.4541 12.5141 21.482 12.4347 21.4919C12.3553 21.5019 12.2747 21.4936 12.1989 21.4677L2.81455 18.5C0.729137 17.8927 0.729137 16.4604 3.28434 15.4406L40.8333 0.957292C41.1311 0.814431 41.4544 0.732616 41.7843 0.716667Z" stroke="#1A273E" stroke-width="0.625" stroke-linecap="round" stroke-linejoin="round"/>
</svg>
